<svg xmlns="http://www.w3.org/2000/svg" xmlns:xlink="http://www.w3.org/1999/xlink" viewBox="0 26.67 1543.12 482.98" width="1515px" height="100%">
    <defs>
        <linearGradient id="linear-gradient" x1="-52.379" y1="24.203" x2="-52.691" y2="24.819" gradientUnits="objectBoundingBox">
            <stop offset="0" stop-color="#114a8b"></stop>
            <stop offset="1" stop-color="#0669bc"></stop>
        </linearGradient>
        <linearGradient id="linear-gradient-2" x1="-37.482" y1="24.489" x2="-37.534" y2="24.506" gradientUnits="objectBoundingBox">
            <stop offset="0" stop-opacity="0.302"></stop>
            <stop offset="0.071" stop-opacity="0.2"></stop>
            <stop offset="0.321" stop-opacity="0.102"></stop>
            <stop offset="0.623" stop-opacity="0.051"></stop>
            <stop offset="1" stop-opacity="0"></stop>
        </linearGradient>
        <linearGradient id="linear-gradient-3" x1="-50.157" y1="24.183" x2="-49.831" y2="24.794" gradientUnits="objectBoundingBox">
            <stop offset="0" stop-color="#3ccbf4"></stop>
            <stop offset="1" stop-color="#2892df"></stop>
        </linearGradient>
    </defs>
    <g transform="translate(-17 -56.048)">
        <g transform="translate(69.53 49)">
            <g transform="matrix(0.799, 0.602, -0.602, 0.799, 1298.789, -369.69)">
                <path d="M429.617,330.278a15.959,15.959,0,0,1,8.888,2.821,13.447,13.447,0,0,0,15.513,0,15.412,15.412,0,0,1,17.775,0,13.449,13.449,0,0,0,15.514,0,1.02,1.02,0,0,1,1.13,1.7,15.406,15.406,0,0,1-17.774,0,13.451,13.451,0,0,0-15.514,0,15.408,15.408,0,0,1-17.775,0,13.451,13.451,0,0,0-15.513,0,15.41,15.41,0,0,1-17.775,0,1.02,1.02,0,1,1,1.131-1.7,13.449,13.449,0,0,0,15.513,0A15.959,15.959,0,0,1,429.617,330.278Z" transform="translate(0 0)" fill="#fff" />
                <path d="M429.617,344.48a15.952,15.952,0,0,1,8.888,2.822,13.451,13.451,0,0,0,15.513,0,15.408,15.408,0,0,1,17.775,0,13.452,13.452,0,0,0,15.514,0,1.02,1.02,0,0,1,1.13,1.7,15.406,15.406,0,0,1-17.774,0,13.45,13.45,0,0,0-15.514,0,15.408,15.408,0,0,1-17.775,0,13.45,13.45,0,0,0-15.513,0,15.41,15.41,0,0,1-17.775,0,1.02,1.02,0,1,1,1.131-1.7,13.453,13.453,0,0,0,15.513,0A15.951,15.951,0,0,1,429.617,344.48Z" transform="translate(0 1.911)" fill="#fff" />
                <path d="M429.617,358.682a15.959,15.959,0,0,1,8.888,2.821,13.447,13.447,0,0,0,15.513,0,15.416,15.416,0,0,1,17.775,0,13.448,13.448,0,0,0,15.514,0,1.02,1.02,0,0,1,1.13,1.7,15.406,15.406,0,0,1-17.774,0,13.452,13.452,0,0,0-15.514,0,15.408,15.408,0,0,1-17.775,0,13.45,13.45,0,0,0-15.513,0,15.41,15.41,0,0,1-17.775,0,1.02,1.02,0,0,1,1.131-1.7,13.449,13.449,0,0,0,15.513,0A15.959,15.959,0,0,1,429.617,358.682Z" transform="translate(0 3.822)" fill="#fff" />
                <path d="M429.617,372.884a15.952,15.952,0,0,1,8.888,2.822,13.45,13.45,0,0,0,15.513,0,15.412,15.412,0,0,1,17.775,0,13.452,13.452,0,0,0,15.514,0,1.02,1.02,0,0,1,1.13,1.7,15.406,15.406,0,0,1-17.774,0,13.452,13.452,0,0,0-15.514,0,15.408,15.408,0,0,1-17.775,0,13.45,13.45,0,0,0-15.513,0,15.41,15.41,0,0,1-17.775,0,1.02,1.02,0,1,1,1.131-1.7,13.452,13.452,0,0,0,15.513,0A15.952,15.952,0,0,1,429.617,372.884Z" transform="translate(0 5.734)" fill="#fff" />
            </g>
        </g>
        <g transform="translate(-312.682 153.213)">
            <path d="M426.433,62.92q-.738-.6-1.491-1.163l-83.289,83.29c.379.5.765,1,1.163,1.49Z" fill="#0328f9" />
            <path d="M406.086,52.227c-.691-.205-1.385-.393-2.082-.572l-72.453,72.454c.179.7.367,1.391.571,2.081Z" fill="#0328f9" />
            <path d="M420.378,58.628q-.825-.51-1.663-.99l-81.181,81.181q.48.837.989,1.664Z" fill="#0328f9" />
            <path d="M413.624,55.035q-.921-.416-1.852-.8L334.13,131.876q.384.931.8,1.852Z" fill="#0328f9" />
            <path d="M397.593,50.373q-1.18-.168-2.366-.287l-65.246,65.246c.081.79.175,1.578.288,2.365Z" fill="#0328f9" />
            <path d="M431.184,67.189c-.222-.222-.447-.438-.672-.655l-84.083,84.083c.218.224.434.45.655.671s.448.438.672.655L431.839,67.86C431.621,67.636,431.406,67.41,431.184,67.189Z" fill="#0328f9" />
            <path d="M387.833,49.787q-1.391.03-2.779.126l-55.246,55.245q-.095,1.389-.126,2.779Z" fill="#0328f9" />
            <path d="M331.12,96.153l44.929-44.929q-1.8.4-3.572.919L332.039,92.581Q331.523,94.355,331.12,96.153Z" fill="#0328f9" />
            <path d="M448.46,113.319q.095-1.389.126-2.779l-58.151,58.15q1.392-.03,2.779-.125Z" fill="#0328f9" />
            <path d="M448.287,103.145c-.081-.79-.175-1.578-.287-2.365L380.675,168.1c.787.112,1.576.206,2.366.287Z" fill="#0328f9" />
            <path d="M358.93,58a59.921,59.921,0,0,0-21.038,21.038Z" fill="#0328f9" />
            <path d="M446.23,125.9q.514-1.775.919-3.572l-44.93,44.929q1.8-.4,3.573-.919Z" fill="#0328f9" />
            <path d="M419.339,160.481a59.929,59.929,0,0,0,21.037-21.038Z" fill="#0328f9" />
            <path d="M440.734,79.658q-.48-.837-.989-1.664L357.89,159.849q.825.51,1.664.99Z" fill="#0328f9" />
            <path d="M436.615,73.43q-.568-.751-1.162-1.49l-83.617,83.617q.736.6,1.49,1.163Z" fill="#0328f9" />
            <path d="M446.717,94.368c-.179-.7-.367-1.391-.571-2.081L372.182,166.25c.691.205,1.385.393,2.082.572Z" fill="#0328f9" />
            <path d="M444.138,86.6q-.383-.931-.8-1.853l-78.694,78.694q.921.415,1.853.8Z" fill="#0328f9" />
        </g>
        <path d="M67.314,398.51l39.661-74.366,39.661,74.366Z" transform="matrix(-0.174, 0.985, -0.985, -0.174, 602.265, 448.237)" fill="#ff0" />
        <g transform="translate(769.941 111) rotate(135)" opacity="0.554">
            <path d="M22.9,3.286a2.247,2.247,0,0,1,2.193,0L41.9,12.72A2.119,2.119,0,0,1,43,14.566V33.433a2.122,2.122,0,0,1-1.1,1.847L25.1,44.714a2.247,2.247,0,0,1-2.193,0L6.1,35.28A2.122,2.122,0,0,1,5,33.434V14.567A2.122,2.122,0,0,1,6.1,12.72Z" fill="#00549d" fill-rule="evenodd" />
            <path d="M5.3,34.4A1.719,1.719,0,0,1,5,33.255V14.5A2.107,2.107,0,0,1,6.094,12.66L22.842,3.28a2.41,2.41,0,0,1,2.271.008c3.343,1.872,13.371,7.459,16.714,9.331a2.093,2.093,0,0,1,.66.576Z" fill="#0086d4" fill-rule="evenodd" />
            <path d="M24,10A14,14,0,1,1,10,24,14.006,14.006,0,0,1,24,10Zm0,7a7,7,0,1,1-7,7A7,7,0,0,1,24,17Z" fill="#fff" fill-rule="evenodd" />
            <path d="M42.485,13.2a2.3,2.3,0,0,1,.506,1.784c0,3.8-.032,14.589.009,18.384a2.172,2.172,0,0,1-.323,1.127L23.593,24Z" fill="#0075c0" fill-rule="evenodd" />
            <path d="M31,21h2v6H31Zm7,0h2v6H38Z" fill="#fff" fill-rule="evenodd" />
            <path d="M29,23h6v2H29Zm7,0h6v2H36Z" fill="#fff" fill-rule="evenodd" />
        </g>
        <g transform="matrix(-0.891, -0.454, 0.454, -0.891, 1477.957, 571.127)" opacity="0.55">
            <path d="M44,11.11V36.89a2.981,2.981,0,0,1-1.98,2.82L33.2,43.85,34,33V15L33.2,4.15l8.82,4.14A2.981,2.981,0,0,1,44,11.11Z" fill="#29b6f6" />
            <path d="M9,33.9,34,15V5.353a1.3,1.3,0,0,0-2.275-.86L4.658,29.239a2,2,0,0,0,.107,3.032s1.324,1.232,1.8,1.574A2.062,2.062,0,0,0,9,33.9Z" fill="#0277bd" />
            <path d="M9,14.1,34,33v9.647a1.3,1.3,0,0,1-2.275.86L4.658,18.761a2,2,0,0,1,.107-3.032s1.324-1.232,1.8-1.574A2.062,2.062,0,0,1,9,14.1Z" fill="#0288d1" />
        </g>
        <g transform="translate(-312.682 153.213)">
            <path d="M426.433,62.92q-.738-.6-1.491-1.163l-83.289,83.29c.379.5.765,1,1.163,1.49Z" fill="#03ffdf" />
            <path d="M406.086,52.227c-.691-.205-1.385-.393-2.082-.572l-72.453,72.454c.179.7.367,1.391.571,2.081Z" fill="#03ffdf" />
            <path d="M420.378,58.628q-.825-.51-1.663-.99l-81.181,81.181q.48.837.989,1.664Z" fill="#03ffdf" />
            <path d="M413.624,55.035q-.921-.416-1.852-.8L334.13,131.876q.384.931.8,1.852Z" fill="#03ffdf" />
            <path d="M397.593,50.373q-1.18-.168-2.366-.287l-65.246,65.246c.081.79.175,1.578.288,2.365Z" fill="#03ffdf" />
            <path d="M431.184,67.189c-.222-.222-.447-.438-.672-.655l-84.083,84.083c.218.224.434.45.655.671s.448.438.672.655L431.839,67.86C431.621,67.636,431.406,67.41,431.184,67.189Z" fill="#03ffdf" />
            <path d="M387.833,49.787q-1.391.03-2.779.126l-55.246,55.245q-.095,1.389-.126,2.779Z" fill="#03ffdf" />
            <path d="M331.12,96.153l44.929-44.929q-1.8.4-3.572.919L332.039,92.581Q331.523,94.355,331.12,96.153Z" fill="#03ffdf" />
            <path d="M448.46,113.319q.095-1.389.126-2.779l-58.151,58.15q1.392-.03,2.779-.125Z" fill="#03ffdf" />
            <path d="M448.287,103.145c-.081-.79-.175-1.578-.287-2.365L380.675,168.1c.787.112,1.576.206,2.366.287Z" fill="#03ffdf" />
            <path d="M358.93,58a59.921,59.921,0,0,0-21.038,21.038Z" fill="#03ffdf" />
            <path d="M446.23,125.9q.514-1.775.919-3.572l-44.93,44.929q1.8-.4,3.573-.919Z" fill="#03ffdf" />
            <path d="M419.339,160.481a59.929,59.929,0,0,0,21.037-21.038Z" fill="#03ffdf" />
            <path d="M440.734,79.658q-.48-.837-.989-1.664L357.89,159.849q.825.51,1.664.99Z" fill="#03ffdf" />
            <path d="M436.615,73.43q-.568-.751-1.162-1.49l-83.617,83.617q.736.6,1.49,1.163Z" fill="#03ffdf" />
            <path d="M446.717,94.368c-.179-.7-.367-1.391-.571-2.081L372.182,166.25c.691.205,1.385.393,2.082.572Z" fill="#03ffdf" />
            <path d="M444.138,86.6q-.383-.931-.8-1.853l-78.694,78.694q.921.415,1.853.8Z" fill="#03ffdf" />
        </g>
        <g transform="translate(1040.636 108.379) rotate(17)" opacity="0.3">
            <path d="M6,42V6H42V42Z" fill="#ffd600" />
            <path d="M29.538,32.947c.692,1.124,1.444,2.2,3.037,2.2,1.338,0,2.04-.665,2.04-1.585,0-1.1-.726-1.492-2.2-2.133l-.807-.344c-2.329-.988-3.878-2.226-3.878-4.841,0-2.41,1.845-4.244,4.728-4.244a4.777,4.777,0,0,1,4.592,2.573l-2.514,1.607A2.2,2.2,0,0,0,32.46,24.8a1.4,1.4,0,0,0-1.545,1.377c0,.964.6,1.354,1.985,1.951l.807.344C36.452,29.645,38,30.839,38,33.523,38,36.415,35.716,38,32.65,38A5.9,5.9,0,0,1,27,34.632Zm-11.586.082a2.731,2.731,0,0,0,2.381,1.6c1.058,0,1.667-.418,1.667-2.043V22h3.333V33.1c0,3.367-1.953,4.9-4.805,4.9a5.848,5.848,0,0,1-5.195-3.368Z" fill="#000001" />
        </g>
        <g transform="translate(397.588 517.865) rotate(-21)" opacity="0.4">
            <path d="M22.9,3.286a2.247,2.247,0,0,1,2.193,0L41.9,12.72A2.119,2.119,0,0,1,43,14.566V33.433a2.122,2.122,0,0,1-1.1,1.847L25.1,44.714a2.247,2.247,0,0,1-2.193,0L6.1,35.28A2.122,2.122,0,0,1,5,33.434V14.567A2.122,2.122,0,0,1,6.1,12.72Z" fill="#37474f" fill-rule="evenodd" />
            <path d="M5.3,34.4A1.719,1.719,0,0,1,5,33.255V14.5A2.107,2.107,0,0,1,6.094,12.66L22.842,3.28a2.41,2.41,0,0,1,2.271.008c3.343,1.872,13.371,7.459,16.714,9.331a2.093,2.093,0,0,1,.66.576Z" fill="#546e7a" fill-rule="evenodd" />
            <path d="M24,10A14,14,0,1,1,10,24,14.006,14.006,0,0,1,24,10Zm0,7a7,7,0,1,1-7,7A7,7,0,0,1,24,17Z" fill="#fff" fill-rule="evenodd" />
            <path d="M42.485,13.2a2.3,2.3,0,0,1,.506,1.784c0,3.8-.032,14.589.009,18.384a2.172,2.172,0,0,1-.323,1.127L23.593,24Z" fill="#455a64" fill-rule="evenodd" />
            <path d="M34,20h1v8H34Zm3,0h1v8H37Z" fill="#fff" fill-rule="evenodd" />
            <path d="M32,25h8v1H32Zm0-3h8v1H32Z" fill="#fff" fill-rule="evenodd" />
        </g>
        <g transform="matrix(0.985, -0.174, 0.174, 0.985, 1365.895, 112.576)" opacity="0.23">
            <path d="M17.634,6H28.939L17.2,40.773A1.8,1.8,0,0,1,15.495,42H6.7a1.8,1.8,0,0,1-1.8-1.8,1.82,1.82,0,0,1,.094-.576l10.935-32.4A1.8,1.8,0,0,1,17.634,6Z" fill="url(#linear-gradient)" />
            <path d="M34.062,29.324H16.135a.83.83,0,0,0-.567,1.437l11.52,10.752A1.811,1.811,0,0,0,28.324,42H38.475Z" fill="#0078d4" />
            <path d="M17.634,6a1.789,1.789,0,0,0-1.712,1.25L5.005,39.6a1.8,1.8,0,0,0,1.085,2.3A1.82,1.82,0,0,0,6.7,42h9.026a1.93,1.93,0,0,0,1.481-1.259l2.177-6.416,7.776,7.253A1.836,1.836,0,0,0,28.32,42H38.434L34,29.324l-12.931,0L28.98,6Z" fill="url(#linear-gradient-2)" />
            <path d="M32.074,7.225A1.8,1.8,0,0,0,30.368,6h-12.6a1.8,1.8,0,0,1,1.7,1.224l10.935,32.4a1.8,1.8,0,0,1-1.13,2.281,1.757,1.757,0,0,1-.575.1H41.3a1.8,1.8,0,0,0,1.8-1.8,1.782,1.782,0,0,0-.1-.575Z" fill="url(#linear-gradient-3)" />
        </g>
        <g transform="matrix(0.946, 0.326, -0.326, 0.946, 404.959, 233.884)" opacity="0.24">
            <g transform="translate(0 -0.001)">
                <path d="M423.768,16.588v9.5h-9.233a6.123,6.123,0,0,1-4.438-1.426c-.963-.938-1.463-2.461-1.531-4.547-.067-.919-.1-2.106-.1-3.562s.029-2.632.1-3.5a6.123,6.123,0,0,1,1.646-4.488,6.491,6.491,0,0,1,4.554-1.444h13.5V0H414.525c-4.7-.01-8.357,1.12-10.966,3.35s-3.986,5.437-4.121,9.61c-.019.918-.039,2.134-.039,3.659s.019,2.719.039,3.608q.491,12.988,14.846,12.988H432.77V16.588Z" transform="translate(-360.947 0.001)" fill="#e93d45" />
                <path d="M29.211,3.341Q25.308,0,18.245,0H0V16.627H8.983v-9.5h9.031a6.464,6.464,0,0,1,4.554,1.444,6.175,6.175,0,0,1,1.646,4.489c.058.881.1,2.049.1,3.5s-.039,2.642-.1,3.562a6.485,6.485,0,0,1-1.531,4.546A6.093,6.093,0,0,1,18.245,26.1H4.5v7.1h13.98q14.369,0,14.846-12.99c.029-.89.048-2.086.048-3.609s-.019-2.737-.048-3.647C33.187,8.778,31.83,5.572,29.211,3.341Z" transform="translate(0 0)" fill="#e93d45" />
            </g>
        </g>
    </g>
</svg>
